<svg width="50" height="50" viewBox="0 0 50 50" fill="none" xmlns="http://www.w3.org/2000/svg">
<circle cx="25" cy="25" r="25" fill="#6060A4"/>
<path fill-rule="evenodd" clip-rule="evenodd" d="M34.2125 16.9834C33.0581 15.704 31.5236 15 29.8911 15C28.2583 15 26.8881 15.704 25.7333 16.9834L25 18.1439L24.2667 16.9834C23.1123 15.704 21.7417 15 20.1092 15C18.4768 15 16.9417 15.704 15.7874 16.9834C13.4042 19.6248 13.4042 23.9224 15.7874 26.5628L24.3269 34.6935C24.4665 34.8488 24.6404 34.9439 24.822 34.9805C24.8829 34.9938 24.9441 35 25.0055 35C25.2471 35 25.489 34.8979 25.673 34.6935L34.2125 26.5628C36.5958 23.9224 36.5958 19.6248 34.2125 16.9834Z" fill="#F5F3FB"/>
</svg>
