<svg style='filter: drop-shadow(0 4px 12px rgb(234 0 61 / 40%);' width="66" height="63" viewBox="0 0 66 63" fill="none" xmlns="http://www.w3.org/2000/svg">
<path fill-rule="evenodd" clip-rule="evenodd" d="M60.6375 6.24765C57.1744 2.21767 52.5708 0 47.6732 0C42.7748 0 38.6642 2.21767 35.2 6.24765L32.9999 9.90316L30.8 6.24765C27.3368 2.21767 23.225 0 18.3277 0C13.4305 0 8.82496 2.21767 5.36212 6.24765C-1.78737 14.568 -1.78737 28.1057 5.36212 36.4229L30.9807 62.0345C31.3996 62.5237 31.9211 62.8233 32.4659 62.9386C32.6486 62.9805 32.8323 63 33.0164 63C33.7412 63 34.4671 62.6784 35.019 62.0345L60.6376 36.4229C67.7875 28.1057 67.7875 14.568 60.6375 6.24765Z" fill="#D72E43"/>
</svg>
